<?xml version="1.0" encoding="utf-8"?>
<!-- Generator: Adobe Illustrator 15.1.0, SVG Export Plug-In . SVG Version: 6.00 Build 0)  -->
<!DOCTYPE svg PUBLIC "-//W3C//DTD SVG 1.1//EN" "http://www.w3.org/Graphics/SVG/1.1/DTD/svg11.dtd">
<svg version="1.1" id="Livello_1" xmlns="http://www.w3.org/2000/svg" xmlns:xlink="http://www.w3.org/1999/xlink" x="0px" y="0px"
	 width="50px" height="50px" viewBox="0 0 50 50" enable-background="new 0 0 50 50" xml:space="preserve">
<path fill="#A7A9AC" d="M25.031,3.598c5.915,0,11.28,2.378,15.182,6.219c3.842,3.902,6.219,9.269,6.219,15.183
	c0,5.915-2.377,11.28-6.219,15.122c-3.902,3.901-9.268,6.28-15.182,6.28s-11.28-2.379-15.183-6.28
	C5.946,36.279,3.568,30.914,3.568,25s2.378-11.28,6.28-15.183C13.75,5.976,19.116,3.598,25.031,3.598z"/>
<path fill="#FFFFFF" d="M34.852,33.46v-6.547c0-3.507-1.873-5.14-4.369-5.14c-2.016,0-2.916,1.108-3.42,1.886v-1.618h-3.795
	c0.05,1.072,0,11.418,0,11.418h3.795v-6.377c0-0.34,0.024-0.681,0.125-0.926c0.274-0.682,0.898-1.387,1.945-1.387
	c1.375,0,1.923,1.047,1.923,2.583v6.109h3.796V33.46z M19.269,20.483c1.323,0,2.147-0.877,2.147-1.974
	c-0.024-1.12-0.824-1.972-2.123-1.972c-1.298,0-2.147,0.852-2.147,1.972c0,1.096,0.824,1.974,2.098,1.974H19.269z M21.167,33.46
	V22.042h-3.795V33.46H21.167z"/>
</svg>
