<?xml version="1.0" encoding="utf-8"?>
<!-- Generator: Adobe Illustrator 15.1.0, SVG Export Plug-In . SVG Version: 6.00 Build 0)  -->
<!DOCTYPE svg PUBLIC "-//W3C//DTD SVG 1.1//EN" "http://www.w3.org/Graphics/SVG/1.1/DTD/svg11.dtd">
<svg version="1.1" id="Livello_1" xmlns="http://www.w3.org/2000/svg" xmlns:xlink="http://www.w3.org/1999/xlink" x="0px" y="0px"
	 width="50px" height="50px" viewBox="0 0 50 50" enable-background="new 0 0 50 50" xml:space="preserve">
<path fill="#A7A9AC" d="M25.031,3.598c5.915,0,11.28,2.378,15.182,6.219c3.842,3.902,6.219,9.269,6.219,15.183
	c0,5.915-2.377,11.28-6.219,15.122c-3.902,3.901-9.268,6.28-15.182,6.28s-11.28-2.379-15.183-6.28
	C5.946,36.279,3.568,30.914,3.568,25s2.378-11.28,6.28-15.183C13.75,5.976,19.116,3.598,25.031,3.598z"/>
<g>
	<path fill="#FFFFFF" d="M18.569,23.5c0,1.639,1.124,2.949,2.622,3.277c-0.234,0.047-0.515,0.094-0.889,0.094
		c-0.141,0-0.328-0.048-0.562-0.094c0.374,1.312,1.592,2.295,3.09,2.341c-1.17,0.936-2.576,1.404-4.12,1.404h-0.796
		c1.451,0.938,3.23,1.498,5.103,1.498c3.042,0,5.478-1.265,7.069-3.09c1.591-1.826,2.389-4.167,2.389-6.414v-0.422
		c0.7-0.515,1.263-1.124,1.685-1.732c-0.608,0.234-1.218,0.375-1.92,0.516c0.702-0.422,1.172-1.077,1.498-1.827
		c-0.701,0.328-1.403,0.656-2.199,0.796c-0.563-0.702-1.405-1.077-2.388-1.077c-1.827,0-3.325,1.498-3.325,3.372
		c0,0.187,0.048,0.421,0.095,0.749c-2.81-0.14-5.198-1.452-6.884-3.511c-0.28,0.515-0.421,1.076-0.421,1.685
		c0,1.264,0.468,2.154,1.452,2.763c-0.561,0-1.077-0.141-1.498-0.375V23.5z"/>
</g>
</svg>
